<?xml version="1.0" encoding="UTF-8"?>
<svg version="1.1" xmlns="http://www.w3.org/2000/svg" width="512" height="512">
<path d="M0 0 C3.15668273 1.78570379 6.06673443 3.87181762 9 6 C10.04039429 6.73549072 10.04039429 6.73549072 11.10180664 7.48583984 C13.20338974 8.97647722 15.29059556 10.48544636 17.375 12 C18.14392578 12.556875 18.91285156 13.11375 19.70507812 13.6875 C26.12553995 18.34558404 32.509679 23.05240462 38.88989258 27.76538086 C46.47510473 33.36334344 54.11513125 38.88354491 61.76611328 44.39111328 C65.51359778 47.09012124 69.25658066 49.79535819 73 52.5 C77.66313468 55.86847492 82.32688055 59.2360966 86.9921875 62.6015625 C87.80945313 63.19130859 88.62671875 63.78105469 89.46875 64.38867188 C91.03363654 65.51787978 92.59872956 66.64680161 94.1640625 67.77539062 C94.87046875 68.28521484 95.576875 68.79503906 96.3046875 69.3203125 C96.92327637 69.76648926 97.54186523 70.21266602 98.17919922 70.67236328 C100 72 100 72 101.79345703 73.72998047 C105.06925887 75.61543313 107.33997777 74.68282143 111 74 C113.22488693 73.38400949 115.43516384 72.71339741 117.62988281 71.99731445 C118.56776359 71.69395125 118.56776359 71.69395125 119.52459145 71.3844595 C121.58592491 70.71619795 123.64449142 70.03980972 125.703125 69.36328125 C127.16887653 68.88616486 128.63479213 68.40955227 130.1008606 67.93341064 C133.20933749 66.92269763 136.31662296 65.90843025 139.42303467 64.89138794 C144.2609869 63.30772119 149.10221124 61.73422555 153.94384766 60.16186523 C167.95973058 55.6068634 181.96569104 51.02459394 195.9453125 46.359375 C198.86253744 45.39082028 201.78003715 44.42309824 204.69763184 43.45565796 C207.30882493 42.5845757 209.91464606 41.69864629 212.52050781 40.81176758 C214.08375658 40.29179512 215.64721836 39.77246245 217.2109375 39.25390625 C217.87964874 39.02068665 218.54835999 38.78746704 219.23733521 38.54718018 C224.56514474 36.80762204 230.62000616 35.73761958 236.00814819 37.75001526 C240.78102395 40.3066204 243.30930853 42.9279256 245 48 C245.71210346 54.78969671 244.26277813 60.46645069 242.0625 66.83984375 C241.75065765 67.77940918 241.43881531 68.71897461 241.11752319 69.68701172 C240.0902413 72.77462352 239.0449475 75.85582713 238 78.9375 C236.90549541 82.21477346 235.81589583 85.49365342 234.72640991 88.77259827 C233.97113351 91.04454404 233.21429581 93.31597133 232.45596313 95.5868988 C228.31486907 108.00070996 224.34126133 120.46695902 220.375 132.9375 C219.40188419 135.99562973 218.4283173 139.05361154 217.45318604 142.11109924 C216.84179426 144.02878757 216.23184825 145.94693754 215.62347412 147.86558533 C214.1952665 152.35070562 212.72992436 156.81612507 211.17285156 161.25830078 C210.88664948 162.082621 210.60044739 162.90694122 210.30557251 163.75624084 C209.77093627 165.28639475 209.22638111 166.81313631 208.66976929 168.33543396 C207.29927838 172.26838506 206.60032925 175.01338224 208 179 C209.35477862 181.16243511 210.72220857 183.15603137 212.25 185.1875 C213.16676088 186.43743091 214.08342271 187.68743446 215 188.9375 C215.48855469 189.5975 215.97710937 190.2575 216.48046875 190.9375 C218.55751535 193.75673034 220.5973063 196.60211336 222.63964844 199.4465332 C228.28777811 207.30647593 234.01549138 215.10618142 239.76635742 222.89111328 C245.35951209 230.4701364 250.87507217 238.10381679 256.37792969 245.74853516 C258.59082041 248.82007011 260.80959278 251.88733729 263.02807617 254.95483398 C267.61254249 261.29565608 272.19066375 267.64107916 276.75 274 C277.16854248 274.58168945 277.58708496 275.16337891 278.01831055 275.76269531 C282.24933884 281.67628491 282.57654005 285.76704306 282 293 C280.08608084 297.7344316 276.54631214 300.72684393 272 303 C270.29032169 303.06902366 268.5778128 303.07200755 266.86697388 303.04382324 C265.23548149 303.02165489 265.23548149 303.02165489 263.57102966 302.9990387 C262.37212601 302.9780864 261.17322235 302.95713409 259.93798828 302.93554688 C258.00561856 302.90882361 256.07324816 302.88213161 254.14086223 302.85660744 C252.76747643 302.83843538 251.39409782 302.81971275 250.02072644 302.8004818 C241.19378661 302.67939446 232.36629952 302.64246625 223.53867936 302.60296726 C214.94613019 302.56414455 206.35599103 302.4985754 197.76464844 302.34521484 C190.93965913 302.22353557 184.11714854 302.16267319 177.29103839 302.17213297 C173.6810593 302.17494656 170.07700423 302.14825746 166.46829605 302.04795837 C151.88185906 301.05429828 151.88185906 301.05429828 138.63352013 305.673769 C134.7801741 309.61600073 132.23368897 314.03140152 129.95098209 319.01661205 C128.68505598 321.65685376 127.02729353 323.88734617 125.22265625 326.18359375 C124.69663818 326.89330322 124.17062012 327.6030127 123.62866211 328.33422852 C123.11182861 329.02830811 122.59499512 329.7223877 122.0625 330.4375 C117.48437813 336.61996996 112.93672058 342.82234763 108.4375 349.0625 C107.90447266 349.80177734 107.37144531 350.54105469 106.82226562 351.30273438 C105.21412447 353.53463937 103.60688142 355.76718791 102 358 C94.14092513 368.92043087 86.245589 379.81154249 78.234375 390.62109375 C76.24407598 393.30683351 74.27284689 396.0037569 72.328125 398.72265625 C71.17570312 400.31400391 71.17570312 400.31400391 70 401.9375 C69.360625 402.83339844 68.72125 403.72929687 68.0625 404.65234375 C64.95739718 408.18675056 61.90094349 410.63689843 57.21875 411.53125 C51.3557309 411.46385898 47.44502006 411.22818981 43 407 C39.45781904 401.50248162 37.43207127 395.90830199 35.453125 389.69921875 C35.12465576 388.68996338 34.79618652 387.68070801 34.45776367 386.64086914 C33.38095348 383.32547366 32.31538661 380.00658221 31.25 376.6875 C30.50028142 374.3713041 29.74994702 372.05530746 28.99902344 369.73950195 C26.6539371 362.4968677 24.32511703 355.24906615 22 348 C21.62182129 346.82147461 21.24364258 345.64294922 20.85400391 344.42871094 C17.65010608 334.44228447 14.44877815 324.45504206 11.26660156 314.46166992 C10.64133357 312.49916787 10.01600986 310.53668356 9.390625 308.57421875 C9.09665833 307.65094284 8.80269165 306.72766693 8.49981689 305.77641296 C6.35252595 299.05180358 4.12555142 292.35738553 1.83886719 285.67895508 C1 283 1 283 1 281 C0.32236099 280.82091599 -0.35527802 280.64183197 -1.05345154 280.45732117 C-7.44886833 278.74373339 -13.75098333 276.85151965 -20.03515625 274.76953125 C-20.97207306 274.46188843 -21.90898987 274.15424561 -22.8742981 273.83728027 C-24.88924928 273.17555534 -26.90382718 272.51269285 -28.9180603 271.8487854 C-34.34697651 270.05962512 -39.77875844 268.27922547 -45.2109375 266.5 C-46.33604233 266.13143387 -47.46114716 265.76286774 -48.62034607 265.38313293 C-56.68753449 262.74503236 -64.76573214 260.14286267 -72.8515625 257.5625 C-73.97531784 257.20387375 -75.09907318 256.8452475 -76.25688171 256.47575378 C-81.66159565 254.75233792 -87.06763025 253.03315205 -92.47485352 251.31762695 C-109.27700473 245.97809055 -109.27700473 245.97809055 -117.21875 243.2421875 C-118.27384766 242.88108887 -119.32894531 242.51999023 -120.41601562 242.14794922 C-124.90883744 240.15198851 -126.8279213 237.34415739 -129 233 C-129.23828125 230.609375 -129.23828125 230.609375 -129.3125 227.75 C-129.34988281 226.81671875 -129.38726562 225.8834375 -129.42578125 224.921875 C-128.68831469 219.86109531 -126.01426676 216.89579115 -122.2578125 213.578125 C-121.22398438 212.80984375 -120.19015625 212.0415625 -119.125 211.25 C-118.55547607 210.82372314 -117.98595215 210.39744629 -117.39916992 209.95825195 C-115.60877313 208.62555058 -113.80719656 207.30981203 -112 206 C-111.44489746 205.59765137 -110.88979492 205.19530273 -110.31787109 204.78076172 C-107.48239505 202.73408339 -104.63483365 200.70493076 -101.78125 198.68359375 C-91.18624004 191.1769284 -80.69299015 183.5288143 -70.25 175.8125 C-64.29812088 171.41487595 -58.32414207 167.05454725 -52.29174805 162.76806641 C-46.60587669 158.7276907 -40.95383557 154.64097027 -35.30249023 150.55249023 C-34.58520752 150.03372314 -33.8679248 149.51495605 -33.12890625 148.98046875 C-32.18640015 148.29827271 -32.18640015 148.29827271 -31.22485352 147.60229492 C-29 146 -29 146 -27.28041267 145.18915176 C-25.06940686 143.99586309 -23.62531061 142.92957988 -22 141 C-20.94776535 136.84936222 -21.09835433 132.76384459 -21.17700195 128.50219727 C-21.17047607 126.59898209 -21.17047607 126.59898209 -21.16381836 124.65731812 C-21.15458395 121.90242673 -21.16724044 119.14881954 -21.19695473 116.39407539 C-21.24361695 112.03574474 -21.24012765 107.6783242 -21.2297821 103.31980896 C-21.21796865 95.63955652 -21.24885119 87.95991719 -21.28894043 80.27978516 C-21.34877914 68.72141491 -21.37317768 57.16301086 -21.36069459 45.60449642 C-21.35758992 41.27470917 -21.37599355 36.94570661 -21.41168749 32.61607182 C-21.42578992 30.56978818 -21.43088305 28.52371528 -21.43206787 26.47738647 C-21.43384489 23.98633615 -21.44999002 21.49523691 -21.48338318 19.00440979 C-21.4616447 12.68745128 -21.30994702 8.76712755 -17 4 C-12.08298485 -0.55723356 -6.43316345 -1.52041728 0 0 Z " fill="#FFD860" transform="translate(187,59)"/>
<path d="M0 0 C1.875 0.1875 1.875 0.1875 4 1 C6.9864128 5.77826048 6.65561833 12.00150343 5.48583984 17.35153198 C4.74179495 19.87328032 3.92049358 22.35455326 3.0625 24.83984375 C2.59473648 26.24919189 2.59473648 26.24919189 2.11752319 27.68701172 C1.0902413 30.77462352 0.0449475 33.85582713 -1 36.9375 C-2.09450459 40.21477346 -3.18410417 43.49365342 -4.27359009 46.77259827 C-5.02886649 49.04454404 -5.78570419 51.31597133 -6.54403687 53.5868988 C-10.68513093 66.00070996 -14.65873867 78.46695902 -18.625 90.9375 C-19.59811581 93.99562973 -20.5716827 97.05361154 -21.54681396 100.11109924 C-22.15820574 102.02878757 -22.76815175 103.94693754 -23.37652588 105.86558533 C-24.8047335 110.35070562 -26.27007564 114.81612507 -27.82714844 119.25830078 C-28.11335052 120.082621 -28.39955261 120.90694122 -28.69442749 121.75624084 C-29.22906373 123.28639475 -29.77361889 124.81313631 -30.33023071 126.33543396 C-31.70072162 130.26838506 -32.39967075 133.01338224 -31 137 C-29.64522138 139.16243511 -28.27779143 141.15603137 -26.75 143.1875 C-25.83323912 144.43743091 -24.91657729 145.68743446 -24 146.9375 C-23.51144531 147.5975 -23.02289063 148.2575 -22.51953125 148.9375 C-20.44248465 151.75673034 -18.4026937 154.60211336 -16.36035156 157.4465332 C-10.71222189 165.30647593 -4.98450862 173.10618142 0.76635742 180.89111328 C6.35951209 188.4701364 11.87507217 196.10381679 17.37792969 203.74853516 C19.59082041 206.82007011 21.80959278 209.88733729 24.02807617 212.95483398 C28.61254249 219.29565608 33.19066375 225.64107916 37.75 232 C38.16854248 232.58168945 38.58708496 233.16337891 39.01831055 233.76269531 C43.24933884 239.67628491 43.57654005 243.76704306 43 251 C41.08608084 255.7344316 37.54631214 258.72684393 33 261 C31.29032169 261.06902366 29.5778128 261.07200755 27.86697388 261.04382324 C26.23548149 261.02165489 26.23548149 261.02165489 24.57102966 260.9990387 C23.37212601 260.9780864 22.17322235 260.95713409 20.93798828 260.93554688 C19.00561856 260.90882361 17.07324816 260.88213161 15.14086223 260.85660744 C13.76747643 260.83843538 12.39409782 260.81971275 11.02072644 260.8004818 C2.19378661 260.67939446 -6.63370048 260.64246625 -15.46132064 260.60296726 C-24.05386981 260.56414455 -32.64400897 260.4985754 -41.23535156 260.34521484 C-48.06034087 260.22353557 -54.88285146 260.16267319 -61.70896161 260.17213297 C-65.3189407 260.17494656 -68.92299577 260.14825746 -72.53170395 260.04795837 C-87.11814094 259.05429828 -87.11814094 259.05429828 -100.36647987 263.673769 C-104.2198259 267.61600073 -106.76631103 272.03140152 -109.04901791 277.01661205 C-110.31494402 279.65685376 -111.97270647 281.88734617 -113.77734375 284.18359375 C-114.56637085 285.24815796 -114.56637085 285.24815796 -115.37133789 286.33422852 C-116.14658813 287.3753479 -116.14658813 287.3753479 -116.9375 288.4375 C-121.51562187 294.61996996 -126.06327942 300.82234763 -130.5625 307.0625 C-131.09552734 307.80177734 -131.62855469 308.54105469 -132.17773438 309.30273438 C-133.78587553 311.53463937 -135.39311858 313.76718791 -137 316 C-144.85907487 326.92043087 -152.754411 337.81154249 -160.765625 348.62109375 C-162.75592402 351.30683351 -164.72715311 354.0037569 -166.671875 356.72265625 C-167.82429688 358.31400391 -167.82429688 358.31400391 -169 359.9375 C-169.639375 360.83339844 -170.27875 361.72929687 -170.9375 362.65234375 C-174.04260282 366.18675056 -177.09905651 368.63689843 -181.78125 369.53125 C-187.6442691 369.46385898 -191.55497994 369.22818981 -196 365 C-199.54218096 359.50248162 -201.56792873 353.90830199 -203.546875 347.69921875 C-203.87534424 346.68996338 -204.20381348 345.68070801 -204.54223633 344.64086914 C-205.61904652 341.32547366 -206.68461339 338.00658221 -207.75 334.6875 C-208.49971858 332.3713041 -209.25005298 330.05530746 -210.00097656 327.73950195 C-212.3460629 320.4968677 -214.67488297 313.24906615 -217 306 C-217.37817871 304.82147461 -217.75635742 303.64294922 -218.14599609 302.42871094 C-221.34989392 292.44228447 -224.55122185 282.45504206 -227.73339844 272.46166992 C-228.35871279 270.49918264 -228.98403796 268.5366988 -229.609375 266.57421875 C-229.90334167 265.65021774 -230.19730835 264.72621674 -230.50018311 263.7742157 C-231.82349801 259.62740223 -233.16281071 255.48810746 -234.56054688 251.36572266 C-234.79759338 250.66631058 -235.03463989 249.9668985 -235.27886963 249.24629211 C-235.90133507 247.42136735 -236.53091334 245.59887285 -237.16113281 243.77661133 C-238 241 -238 241 -238 238 C-236.5892238 236.51054078 -236.5892238 236.51054078 -234.60306454 234.90762806 C-229.5776874 230.69139205 -224.98136679 226.1202635 -220.35096741 221.47795105 C-219.40040689 220.52854494 -218.44962886 219.57935658 -217.49865431 218.63036519 C-214.90545742 216.04131725 -212.31535733 213.44919107 -209.72578943 210.8565141 C-206.92536568 208.0538185 -204.12205451 205.25401343 -201.31912231 202.4538269 C-195.83797543 196.97711658 -190.35952306 191.49771859 -184.88204611 186.01733806 C-180.43232857 181.56535957 -175.98163282 177.11436121 -171.53024101 172.66405678 C-170.89605593 172.03002493 -170.26187085 171.39599308 -169.60846804 170.74274815 C-168.32009527 169.45469511 -167.03172027 168.16664432 -165.74334305 166.87859575 C-153.6769235 154.81502443 -141.61356542 142.74839546 -129.55125915 130.68071149 C-119.19500918 120.31998758 -108.83613106 109.96189741 -98.4753418 99.60571289 C-86.44070978 87.57642705 -74.40769458 75.54552772 -62.37727255 63.51203138 C-61.09586667 62.23030695 -59.81445871 60.94858462 -58.53304863 59.6668644 C-57.58732767 58.72091203 -57.58732767 58.72091203 -56.62250124 57.75584951 C-52.17294864 53.30543236 -47.72223442 48.85617892 -43.2710743 44.40736961 C-37.85360674 38.99270043 -32.43791185 33.57626584 -27.02451361 28.15752818 C-24.26110259 25.39148166 -21.49688437 22.62625443 -18.7305088 19.86317253 C-15.73768143 16.87385477 -12.74871352 13.88070836 -9.76014709 10.88713074 C-8.87748973 10.0067041 -7.99483237 9.12627746 -7.08542782 8.21917123 C-6.29067278 7.42180843 -5.49591773 6.62444564 -4.6770792 5.80292034 C-3.98614786 5.11182665 -3.29521651 4.42073295 -2.58334786 3.70869702 C-0.92032616 2.0739044 -0.92032616 2.0739044 0 0 Z " fill="#FFB300" transform="translate(426,101)"/>
<path d="M0 0 C3.00705459 2.47384491 4.71651887 4.89156122 5.89453125 8.55859375 C6.37255043 13.54354511 6.27266833 18.49693448 6.14453125 23.49609375 C6.12443798 24.86130196 6.10619219 26.22653868 6.08984375 27.59179688 C6.04287558 30.91479509 5.97719851 34.23632367 5.89453125 37.55859375 C6.67578369 37.5428833 7.45703613 37.52717285 8.26196289 37.51098633 C11.82691104 37.44834136 15.39174302 37.40950886 18.95703125 37.37109375 C20.18615234 37.34595703 21.41527344 37.32082031 22.68164062 37.29492188 C30.95524394 37.22801942 36.35841618 37.48371108 42.76953125 43.05859375 C46.25013107 47.15341706 46.23952677 50.89060213 46.171875 56.0546875 C45.75718776 59.79855403 44.39775748 61.79187002 41.89453125 64.55859375 C37.37564747 68.13743863 34.48424031 69.04730673 28.74609375 68.94921875 C28.08870209 68.94355896 27.43131042 68.93789917 26.7539978 68.93206787 C24.67506934 68.9098565 22.59792962 68.85969795 20.51953125 68.80859375 C19.10158757 68.78850864 17.6836166 68.7702614 16.265625 68.75390625 C12.80802248 68.71004442 9.35145174 68.64112812 5.89453125 68.55859375 C5.92595215 69.874646 5.92595215 69.874646 5.95800781 71.21728516 C6.02645725 74.49376058 6.07646176 77.76946887 6.11425781 81.04638672 C6.13428968 82.4605717 6.16152373 83.87467472 6.19628906 85.28857422 C6.24518614 87.32930794 6.26758248 89.36894065 6.28515625 91.41015625 C6.31657715 93.24827881 6.31657715 93.24827881 6.34863281 95.12353516 C5.65478243 100.37217758 3.14174895 103.40263588 -0.66796875 106.93359375 C-5.54693572 109.2400145 -9.79988872 109.31766332 -15.10546875 108.55859375 C-19.83935007 106.49290008 -22.04921059 103.7932585 -24.28735352 99.16210938 C-26.0244564 93.63406846 -25.50693153 87.79087738 -25.35546875 82.05859375 C-25.33742188 80.75921875 -25.319375 79.45984375 -25.30078125 78.12109375 C-25.2538949 74.93282224 -25.18827768 71.74610075 -25.10546875 68.55859375 C-25.98283691 68.57954102 -26.86020508 68.60048828 -27.76416016 68.62207031 C-31.04063558 68.69051975 -34.31634387 68.74052426 -37.59326172 68.77832031 C-39.0074467 68.79835218 -40.42154972 68.82558623 -41.83544922 68.86035156 C-43.87618294 68.90924864 -45.91581565 68.93164498 -47.95703125 68.94921875 C-49.79515381 68.98063965 -49.79515381 68.98063965 -51.67041016 69.01269531 C-56.31935696 68.39812239 -59.45600105 66.41093715 -62.56640625 62.91796875 C-65.22351063 58.23964821 -65.70274245 54.93405707 -65.10546875 49.55859375 C-63.24778728 44.29516293 -60.53755133 41.72436702 -56.10546875 38.55859375 C-52.69265762 37.36151456 -49.40109931 37.44399172 -45.80859375 37.4609375 C-44.60332031 37.46416016 -43.39804687 37.46738281 -42.15625 37.47070312 C-40.90199219 37.47908203 -39.64773438 37.48746094 -38.35546875 37.49609375 C-36.45087891 37.50286133 -36.45087891 37.50286133 -34.5078125 37.50976562 C-31.37365039 37.52154819 -28.23958334 37.53799959 -25.10546875 37.55859375 C-25.1211792 36.77734131 -25.13688965 35.99608887 -25.15307617 35.19116211 C-25.21572114 31.62621396 -25.25455364 28.06138198 -25.29296875 24.49609375 C-25.31810547 23.26697266 -25.34324219 22.03785156 -25.36914062 20.77148438 C-25.47666665 7.47409964 -25.47666665 7.47409964 -20.60546875 1.81640625 C-13.62381271 -3.45619857 -7.79366638 -3.57143571 0 0 Z " fill="#FFB300" transform="translate(442.10546875,403.44140625)"/>
<path d="M0 0 C3.61329423 3.34229716 5.57132785 6.5016738 6.5 11.3125 C6.58120233 13.4101396 6.60755808 15.51018762 6.59765625 17.609375 C6.59282227 19.41728516 6.59282227 19.41728516 6.58789062 21.26171875 C6.57532227 23.14310547 6.57532227 23.14310547 6.5625 25.0625 C6.55798828 26.33222656 6.55347656 27.60195313 6.54882812 28.91015625 C6.53704556 32.04431836 6.52059416 35.17838541 6.5 38.3125 C7.34183838 38.29155273 8.18367676 38.27060547 9.05102539 38.24902344 C12.20251352 38.18047038 15.35361906 38.13051737 18.50561523 38.09277344 C19.86446713 38.07277372 21.22323424 38.04556424 22.58178711 38.01074219 C36.80367035 37.65558682 36.80367035 37.65558682 42.5 42.3125 C45.3653495 45.79544363 46.40262002 49.5056373 46.9375 53.9375 C46.28559196 58.96650489 44.81271944 62.06887105 41.125 65.5625 C36.41484348 68.70260435 32.7566445 69.56137815 27.10546875 69.5078125 C25.90341797 69.50136719 24.70136719 69.49492188 23.46289062 69.48828125 C21.59407227 69.46314453 21.59407227 69.46314453 19.6875 69.4375 C18.42228516 69.42847656 17.15707031 69.41945313 15.85351562 69.41015625 C12.73548436 69.38662394 9.61783903 69.35374545 6.5 69.3125 C6.51571045 70.09375244 6.5314209 70.87500488 6.54760742 71.67993164 C6.61025239 75.24487979 6.64908489 78.80971177 6.6875 82.375 C6.71263672 83.60412109 6.73777344 84.83324219 6.76367188 86.09960938 C6.8711979 99.39699411 6.8711979 99.39699411 2 105.0546875 C-2.96438985 108.80383608 -6.27610081 109.82265567 -12.5 109.3125 C-17.64101528 107.7203199 -21.09987603 105.62091243 -23.72583008 100.72241211 C-25.51080942 95.16595322 -24.89795374 89.14728936 -24.75 83.375 C-24.72990673 82.00979179 -24.71166094 80.64455507 -24.6953125 79.27929688 C-24.64834433 75.95629866 -24.58266726 72.63477008 -24.5 69.3125 C-25.66402344 69.33606567 -25.66402344 69.33606567 -26.8515625 69.36010742 C-30.40096619 69.42284673 -33.95025276 69.46161447 -37.5 69.5 C-38.72074219 69.52513672 -39.94148438 69.55027344 -41.19921875 69.57617188 C-48.02817337 69.63154178 -53.35427805 69.40367361 -59.5 66.3125 C-64.32217914 61.24302962 -64.79475551 57.80919117 -64.71484375 51.0078125 C-64.33195347 46.20427989 -62.45669858 44.15252802 -58.9375 41.0625 C-54.93004784 38.18535486 -52.68148397 38.1940904 -47.7421875 38.21484375 C-46.74761032 38.21696617 -46.74761032 38.21696617 -45.73294067 38.21913147 C-43.61358137 38.22473246 -41.49432741 38.237285 -39.375 38.25 C-37.93880361 38.25501488 -36.50260556 38.25957781 -35.06640625 38.26367188 C-31.54423655 38.27470218 -28.02212855 38.29196741 -24.5 38.3125 C-24.52094727 37.43513184 -24.54189453 36.55776367 -24.56347656 35.65380859 C-24.631926 32.37733317 -24.68193051 29.10162488 -24.71972656 25.82470703 C-24.73975843 24.41052205 -24.76699248 22.99641903 -24.80175781 21.58251953 C-24.85065489 19.54178581 -24.87305123 17.5021531 -24.890625 15.4609375 C-24.91157227 14.23552246 -24.93251953 13.01010742 -24.95410156 11.74755859 C-24.27730503 6.62792031 -21.47025093 2.59227251 -17.5 -0.6875 C-11.65323045 -2.63642318 -5.56047738 -2.68094445 0 0 Z " fill="#FFD960" transform="translate(64.5,1.6875)"/>
<path d="M0 0 C3.77004399 2.45872434 6.98932998 5.31093062 8.5078125 9.70703125 C8.96014534 12.37771982 8.96973284 14.9174411 8.9375 17.625 C8.92847656 18.60984375 8.91945312 19.5946875 8.91015625 20.609375 C8.89855469 21.35703125 8.88695312 22.1046875 8.875 22.875 C9.58785156 22.84019531 10.30070312 22.80539062 11.03515625 22.76953125 C17.17144381 22.59609647 21.56252698 22.68751619 26.875 25.875 C30.66501666 29.48735963 32.66994984 32.78348837 33.1875 38.0625 C32.67500086 44.31498951 30.72502183 48.30051333 25.9375 52.375 C20.70477488 54.99136256 14.55391922 54.18243021 8.875 53.875 C8.92140625 54.6484375 8.9678125 55.421875 9.015625 56.21875 C9.24811459 62.92773521 9.23963554 68.48720064 4.875 73.875 C1.28369721 77.22815274 -2.34357774 78.141909 -7.1875 78.375 C-13.23555944 78.09967104 -16.29159375 75.70840625 -20.5 71.5 C-23.05795624 65.79378993 -22.42872738 60.03391624 -22.125 53.875 C-23.06601562 53.92140625 -24.00703125 53.9678125 -24.9765625 54.015625 C-35.15327225 54.31060209 -35.15327225 54.31060209 -39.75 52.25 C-43.95840625 48.04159375 -46.34967104 44.98555944 -46.625 38.9375 C-46.391909 34.09357774 -45.47815274 30.46630279 -42.125 26.875 C-36.14334296 22.02928264 -29.48481595 22.43341104 -22.125 22.875 C-22.17140625 22.01777344 -22.2178125 21.16054688 -22.265625 20.27734375 C-22.64723068 8.18862105 -22.64723068 8.18862105 -18.125 2.875 C-12.37520297 -1.29079655 -6.81026137 -2.45169409 0 0 Z " fill="#FFD960" transform="translate(86.125,394.125)"/>
<path d="M0 0 C3.75317323 1.59709499 6.31940288 3.93646044 9 7 C10.18681726 10.56045177 10.09689832 13.43808337 10.0625 17.1875 C10.05347656 18.45980469 10.04445313 19.73210938 10.03515625 21.04296875 C10.02355469 22.01878906 10.01195312 22.99460937 10 24 C10.94101562 23.95359375 11.88203125 23.9071875 12.8515625 23.859375 C24.29085662 23.52780126 24.29085662 23.52780126 27.6875 25.8125 C28.450625 26.534375 29.21375 27.25625 30 28 C30.598125 28.515625 31.19625 29.03125 31.8125 29.5625 C34.79917353 33.17794691 34.32813655 37.83289138 34.28125 42.26953125 C33.88511371 46.11535443 32.60507679 48.18370077 30 51 C25.15475896 54.51279975 21.14244815 55.13264819 15.25 55.0625 C14.26515625 55.05347656 13.2803125 55.04445312 12.265625 55.03515625 C11.51796875 55.02355469 10.7703125 55.01195312 10 55 C10.05800781 55.92941406 10.11601562 56.85882813 10.17578125 57.81640625 C10.62841159 70.21847744 10.62841159 70.21847744 6.5390625 74.73046875 C2.25907627 78.26091424 -1.63021274 79.2610108 -7.0625 79 C-12.21188672 78.25654751 -14.57334015 76.92812227 -18 73 C-21.35166976 67.26520384 -21.35892983 61.48732426 -21 55 C-21.70125 55.04640625 -22.4025 55.0928125 -23.125 55.140625 C-29.66366094 55.38937841 -34.67192552 55.0337545 -40 51 C-43.52439956 47.11412356 -44.80928725 43.45231658 -45.15625 38.30859375 C-44.88000118 34.22701749 -43.48915132 31.21485142 -41 28 C-34.9507617 22.85171209 -28.65491238 23.58559873 -21 24 C-21.03480469 23.28714844 -21.06960938 22.57429688 -21.10546875 21.83984375 C-21.32732411 13.99038987 -20.82210236 9.16626119 -15.4375 3.125 C-10.72914869 -0.97971653 -6.03336303 -0.48966425 0 0 Z " fill="#FFB300" transform="translate(478,16)"/>
</svg>
